HIERARCHY
ROOT Hips
{
    OFFSET 0.000000 0.000000 0.000000
    CHANNELS 6 Xposition Yposition Zposition Zrotation Xrotation Yrotation
        JOINT Chest
        {
            OFFSET -0.000000 28.502190 -0.000000
            CHANNELS 3 Zrotation Xrotation Yrotation
            JOINT Neck
            {
                OFFSET -0.000000 21.060717 0.000000
                CHANNELS 3 Zrotation Xrotation Yrotation
                JOINT Head
                {
                    OFFSET -0.000000 9.900002 0.000000
                    CHANNELS 3 Zrotation Xrotation Yrotation
                    End Site
                    {
                        OFFSET -0.000000 15.300010 0.000000
                    }
                }
            }
            JOINT LeftCollar
            {
                OFFSET -0.000000 21.060717 0.000000
                CHANNELS 3 Zrotation Xrotation Yrotation
                JOINT LeftShoulder
                {
                    OFFSET 18.000004 -0.000000 0.000000
                    CHANNELS 3 Zrotation Xrotation Yrotation
                    JOINT LeftElbow
                    {
                        OFFSET 21.585543 0.000000 0.000000
                        CHANNELS 3 Zrotation Xrotation Yrotation
                        JOINT LeftWrist
                        {
                            OFFSET 21.310946 0.000000 0.000000
                            CHANNELS 3 Zrotation Xrotation Yrotation
                            End Site
                            {
                                OFFSET 0.000000 -13.500002 0.000000
                            }
                        }
                    }
                }
            }
            JOINT RightCollar
            {
                OFFSET -0.000000 21.060717 0.000000
                CHANNELS 3 Zrotation Xrotation Yrotation
                JOINT RightShoulder
                {
                    OFFSET -18.000004 0.000000 0.000000
                    CHANNELS 3 Zrotation Xrotation Yrotation
                    JOINT RightElbow
                    {
                        OFFSET -21.585543 0.000000 0.000000
                        CHANNELS 3 Zrotation Xrotation Yrotation
                        JOINT RightWrist
                        {
                            OFFSET -21.310946 0.000000 0.000000
                            CHANNELS 3 Zrotation Xrotation Yrotation
                            End Site
                            {
                                OFFSET -0.000000 -13.500002 0.000000
                            }
                        }
                    }
                }
            }
        }
    JOINT LeftHip
    {
        OFFSET 10.800001 0.000000 0.000000
        CHANNELS 3 Zrotation Xrotation Yrotation
        JOINT LeftKnee
        {
            OFFSET -0.000000 -36.918850 0.000000
            CHANNELS 3 Zrotation Xrotation Yrotation
            JOINT LeftAnkle
            {
                OFFSET -0.000000 -34.060452 0.000000
                CHANNELS 3 Zrotation Xrotation Yrotation
                End Site
                {
                    OFFSET -0.000000 -4.500001 15.300010
                }
            }
        }
    }
    JOINT RightHip
    {
        OFFSET -10.800001 0.000000 0.000000
        CHANNELS 3 Zrotation Xrotation Yrotation
        JOINT RightKnee
        {
            OFFSET -0.000000 -36.918850 0.000000
            CHANNELS 3 Zrotation Xrotation Yrotation
            JOINT RightAnkle
            {
                OFFSET -0.000000 -34.060452 0.000000
                CHANNELS 3 Zrotation Xrotation Yrotation
                End Site
                {
                    OFFSET -0.000000 -4.500001 15.300010
                }
            }
        }
    }
}
MOTION
Frames:    6
Frame Time:    0.010000
60.821606    78.478218    35.059971    2.241514    1.776693    -1.840543    -7.355589    5.881042    -0.659673    1.362973    0.770114    -14.671025    -0.133195    -27.798813    -14.695211    -16.267275    -0.595850    3.906987    -55.375854    23.951080    -8.626489    3.731841    -1.896281    -53.682663    123.172890    14.306756    20.452848    13.762986    -1.738245    -14.947547    -0.811606    58.791492    83.815811    -15.187865    -6.695996    49.961540    -68.245087    27.449425    -89.193253    3.306583    -17.978184    -3.919602    15.143889    50.302578    -20.839979    -9.094125    -8.105717    -5.417679    -2.419871    -26.437433    -3.437830    -7.722748    23.733976    -2.270815    3.664735    0.452995    -0.346933    
61.202900    78.458313    34.656456    2.254041    1.940570    -1.374066    -7.203448    6.020127    -0.518945    1.665623    0.915995    -14.703924    -0.358075    -28.021788    -14.779985    -15.700060    -0.497464    3.297318    -56.990601    22.893501    -6.702675    3.732172    -1.896734    -54.193314    125.450020    16.446440    19.281992    13.531548    -1.764630    -15.513066    0.326385    60.068424    83.555740    -14.683680    -6.692219    51.253281    -68.497597    26.835777    -89.255592    2.804558    -17.932409    -4.650906    15.377148    50.017246    -21.422287    -9.674232    -8.645508    -5.971363    -2.910255    -26.645447    -3.235420    -7.472057    23.438393    -2.999617    3.973368    0.846518    -0.439413    
61.626053    78.427269    34.252518    2.278615    2.036764    -1.070080    -7.025141    6.183541    -0.345659    1.975789    1.052914    -14.674179    -0.629448    -28.136566    -14.813430    -15.156893    -0.416187    2.786648    -58.422012    21.883570    -4.868868    3.701634    -1.902090    -54.967045    127.863785    18.346933    18.445492    13.206250    -1.777668    -16.010687    0.988082    61.216579    83.616951    -14.287802    -6.738741    52.503716    -68.859810    25.899191    -89.124237    2.246576    -17.722057    -5.303855    15.613954    49.711781    -21.724060    -9.996060    -9.161427    -6.751567    -3.387243    -26.820787    -3.015722    -7.253206    23.133083    -3.577387    4.289074    1.261503    -0.524808    
62.090374    78.380135    33.851276    2.316258    2.056289    -0.952352    -6.819869    6.382796    -0.119174    2.261260    1.163072    -14.592272    -0.932360    -28.140226    -14.802308    -14.640726    -0.348416    2.424863    -59.664375    21.017710    -3.166606    3.653015    -1.909488    -56.011703    130.253906    19.917398    18.053638    12.797253    -1.765730    -16.448090    1.155840    62.204693    84.008232    -13.945108    -6.787312    53.696312    -69.353271    24.551737    -88.780144    1.653665    -17.341642    -5.807726    15.852831    49.390671    -21.778860    -9.990595    -9.699925    -7.662953    -3.837745    -26.958183    -2.776653    -7.071701    22.809229    -3.976580    4.604276    1.704322    -0.593502    
62.593884    78.312111    33.453796    2.365047    1.998864    -1.034265    -6.593698    6.619412    0.178163    2.543495    1.266197    -14.423846    -1.257760    -28.060541    -14.708626    -14.143866    -0.308026    2.321267    -60.720146    20.371500    -1.619126    3.630392    -1.955616    -57.350418    132.465332    21.109991    18.170156    12.330034    -1.731853    -16.731167    0.968275    63.043068    84.588272    -13.635900    -6.825123    54.775322    -69.955200    22.570305    -88.128387    1.048362    -16.800228    -6.104421    16.083780    49.058487    -21.676573    -9.623199    -10.326180    -8.531788    -4.250263    -27.059898    -2.517900    -6.929756    22.456770    -4.183814    4.912342    2.181957    -0.634297    
63.133682    78.219292    33.058609    2.419089    1.871790    -1.313517    -6.337492    6.893438    0.555332    2.750899    1.330003    -14.251653    -1.590168    -27.889477    -14.613173    -13.670115    -0.268845    2.364377    -61.621601    19.994173    -0.238325    3.627827    -2.035287    -58.930992    134.406128    21.873188    18.790682    11.815183    -1.679128    -17.013723    0.582133    63.678463    85.203369    -13.346017    -6.833948    55.684410    -70.623100    19.652760    -87.077171    0.452187    -16.119263    -6.163879    16.279451    48.712715    -21.500088    -8.896717    -11.096669    -9.170971    -4.617177    -27.132921    -2.245025    -6.825651    22.064146    -4.204203    5.209363    2.701514    -0.636536    
